# xmcd
#
# Track frame offsets: 
#        150
#        23879
#        37979
#        50653
#        67419
#        82868
#        97719
#        112857
#        137188
#        156543
#        172576
#        186795
#        201149
#        220365
#        243239
#        257716
#        284493
#        299044
#        312466
#        324916
#        334141
#        344887
#
# Disc length: 4754 seconds
#
# Revision: 1
# Processed by: cddbd v1.5.2PL0 Copyright (c) Steve Scherf et al.
# Submitted via: ExactAudioCopy v0.99pb5
#
DISCID=52129016
DTITLE=Tony Joe White - Swamp Music The Complete Monument Recordings  
DTITLE=CD 2 
DYEAR=2006
DGENRE=Swamp Blues
TTITLE0=Elements And Things
TTITLE1=Roosevelt And Ira Lee (Night Of The Mossacin)
TTITLE2=Woodpecker
TTITLE3=Rainy Night In Georgia
TTITLE4=For Le Ann
TTITLE5=Old Man Willis
TTITLE6=Woman With Soul
TTITLE7=I Want You
TTITLE8=I Thought I Knew You Well
TTITLE9=The Migrant
TTITLE10=Watching The Trains Go By (Single Version)
TTITLE11=Old Man Willis (Single Version)
TTITLE12=Funky Fingers
TTITLE13=Soul Britches
TTITLE14=Dusty Marshmallow
TTITLE15=Toil and Trouble
TTITLE16=What Does It Take
TTITLE17=This Guy's In Love With You
TTITLE18=Woodpecker (alternate version)
TTITLE19=Laying Out All Night
TTITLE20=I Want Your Sweet Love
TTITLE21=Keep A Movin' Train
EXTD=
EXTT0=
EXTT1=
EXTT2=
EXTT3=
EXTT4=
EXTT5=
EXTT6=
EXTT7=
EXTT8=
EXTT9=
EXTT10=
EXTT11=
EXTT12=
EXTT13=
EXTT14=
EXTT15=
EXTT16=
EXTT17=
EXTT18=
EXTT19=
EXTT20=
EXTT21=
PLAYORDER=
